<svg width="1410" height="820" viewBox="0 0 1410 820" fill="none" xmlns="http://www.w3.org/2000/svg">
<path d="M114.852 81.822L273.134 27.0307L287.018 80.6805M300.903 134.33L1 54.4263M300.903 134.33L406.424 151.877M300.903 134.33L287.018 80.6805M300.903 134.33L428.639 95.5199M406.424 151.877L428.639 95.5199M406.424 151.877L650.789 137.258M428.639 95.5199L287.018 80.6805M428.639 95.5199L650.789 137.258M428.639 95.5199L517.499 27.0307M287.018 80.6805L517.499 27.0307M517.499 27.0307L567.483 81.822M650.789 137.258L859.055 55.6499M650.789 137.258L567.483 81.822M650.789 137.258L857.666 219.534M859.055 55.6499L567.483 81.822M859.055 55.6499L857.666 219.534M859.055 55.6499L1064.54 2M857.666 219.534L1064.54 2M857.666 219.534L1028.44 248.561M1064.54 2L1153.4 109.3M1064.54 2L1028.44 248.561M1153.4 109.3L1028.44 248.561M1153.4 109.3L1331.12 29.3957M1153.4 109.3L1185.34 204.043M1153.4 109.3L1290.16 178.71M1028.44 248.561L1249.21 328.024M1028.44 248.561L1072.87 355.861M1331.12 29.3957L1394.99 166.374M1331.12 29.3957L1290.16 178.71M1331.12 29.3957L1322.1 247.199M1394.99 166.374L1382.5 289.655M1394.99 166.374L1322.1 247.199M1249.21 328.024L1329.59 375.389M1249.21 328.024L1382.5 289.655M1249.21 328.024L1117.3 463.16M1249.21 328.024L1185.34 204.043M1249.21 328.024L1290.16 178.71M1249.21 328.024L1322.1 247.199M1249.21 328.024L1408 560.208M1329.59 375.389L1382.5 289.655M1329.59 375.389L1408 560.208M1117.3 463.16L1072.87 355.861M1117.3 463.16L1408 560.208M1117.3 463.16L902.543 610.627M1072.87 355.861L1185.34 204.043M1408 560.208L1243.64 649.306M1408 560.208L1300.25 811.468L1166.32 783.839M1408 560.208L1266.96 672.024L1166.32 783.839M902.543 610.627L1135.04 531.974M902.543 610.627L738.115 792.922M902.543 610.627L988.038 674.515M902.543 610.627L774.093 636.253M1166.32 783.839L1243.64 649.306M1166.32 783.839L936.674 797.976M1243.64 649.306L988.038 674.515M1243.64 649.306L1135.04 531.974M988.038 674.515L1135.04 531.974M988.038 674.515L936.674 797.976M988.038 674.515L738.115 792.922M936.674 797.976L738.115 792.922M738.115 792.922C738.115 796.965 607.661 811.325 542.434 818M738.115 792.922L751.325 735.399M774.093 636.253L751.325 735.399M774.093 636.253L660.348 731.644M542.434 818L660.348 731.644M542.434 818L431.993 797.976M751.325 735.399L660.348 731.644" stroke="#FB1B3D" stroke-width="2"/>
</svg>
