<svg width="14" height="14" viewBox="0 0 14 14" fill="none" xmlns="http://www.w3.org/2000/svg">
<path d="M13.6691 7.96403C13.5259 7.92825 13.3828 7.96403 13.2576 8.05349C12.7924 8.4471 12.2556 8.76914 11.6652 8.98384C11.1106 9.19854 10.5023 9.30589 9.85818 9.30589C8.40897 9.30589 7.08501 8.71547 6.13676 7.76722C5.18851 6.81898 4.5981 5.49501 4.5981 4.04581C4.5981 3.4375 4.70545 2.84708 4.88436 2.31034C5.08117 1.73781 5.36743 1.21896 5.74315 0.771675C5.90417 0.574869 5.86839 0.288606 5.67158 0.127583C5.54634 0.0381262 5.40321 0.00234332 5.26008 0.0381262C3.73931 0.449629 2.41534 1.36209 1.4671 2.57871C0.554634 3.77743 0 5.26242 0 6.89054C0 8.84071 0.787223 10.612 2.07541 11.9001C3.36359 13.1883 5.13484 13.9755 7.08501 13.9755C8.73102 13.9755 10.2518 13.403 11.4684 12.4548C12.7029 11.4886 13.5975 10.111 13.9732 8.53656C14.0627 8.26818 13.9195 8.0177 13.6691 7.96403ZM10.9317 11.7033C9.89396 12.5263 8.56999 13.0273 7.12079 13.0273C5.4211 13.0273 3.88244 12.3295 2.77317 11.2203C1.6639 10.111 0.966137 8.57234 0.966137 6.87265C0.966137 5.45923 1.43131 4.17105 2.23643 3.13334C2.79106 2.41769 3.48883 1.82727 4.29394 1.41577C4.20449 1.61257 4.11503 1.80938 4.04346 2.02407C3.81087 2.66817 3.70353 3.34804 3.70353 4.0637C3.70353 5.76338 4.40129 7.31994 5.51056 8.42921C6.61983 9.53848 8.17638 10.2362 9.87607 10.2362C10.6275 10.2362 11.3432 10.111 12.0051 9.86052C12.2377 9.77106 12.4703 9.68161 12.685 9.57426C12.2556 10.3973 11.6652 11.1308 10.9317 11.7033Z" fill="white"/>
</svg>
