<svg width="96" xmlns="http://www.w3.org/2000/svg" height="96" viewBox="0 0 96 96" xmlns:xlink="http://www.w3.org/1999/xlink">
<path d="m71.916,80.895h-8.97c-1.65,0-2.991-1.335-2.991-2.988v-5.982c0-1.647 1.341-2.988 2.991-2.988h5.979v-14.952h-20.931v14.952h2.988c1.653,0 2.991,1.341 2.991,2.988v5.982c0,1.653-1.338,2.988-2.991,2.988h-8.97c-1.65,0-2.988-1.335-2.988-2.988v-5.982c0-1.647 1.338-2.988 2.988-2.988h2.994v-14.952h-20.934v14.952h5.979c1.653,0 2.991,1.341 2.991,2.988v5.982c0,1.653-1.338,2.988-2.991,2.988h-8.967c-1.653,0-2.991-1.335-2.991-2.988v-5.982c0-1.647 1.338-2.988 2.991-2.988v-17.94h23.922v-11.961h-8.97c-1.653,0-2.991-1.338-2.991-2.991v-14.952c0-1.65 1.338-2.991 2.991-2.991h20.931c1.653,0 2.988,1.338 2.988,2.991v14.949c0,1.65-1.335,2.991-2.988,2.991h-8.97v11.961h23.922v17.94c1.65,0 2.991,1.341 2.991,2.988v5.982c-.003,1.656-1.347,2.991-2.994,2.991zm-50.832-8.97v5.982h8.967v-5.982h-8.967zm35.88-35.88v-14.952h-20.931v14.949h20.931zm-14.952,35.883v5.982h8.97v-5.982h-8.97zm29.904,0h-8.97v5.982h8.97v-5.982z"/>
</svg>
