<svg width="17" height="16" viewBox="0 0 17 16" fill="none" xmlns="http://www.w3.org/2000/svg">
<g clip-path="url(#clip0_34:1780)">
<path d="M5.85999 5.29293C5.14041 5.97979 4.6748 6.94949 4.6748 8C4.6748 9.0505 5.11925 10.0202 5.85999 10.7071C6.57957 11.3939 7.59544 11.8384 8.69597 11.8384C9.7965 11.8384 10.8124 11.3939 11.5319 10.7071C12.2515 10.0202 12.7171 9.0505 12.7171 8C12.7171 6.94949 12.2727 5.97979 11.5319 5.29293C10.8124 4.60606 9.7965 4.16161 8.69597 4.16161C7.59544 4.16161 6.57957 4.58586 5.85999 5.29293ZM10.77 6.0202C11.2991 6.52525 11.6166 7.23232 11.6166 8C11.6166 8.76767 11.2991 9.47474 10.77 9.97979C10.2409 10.4848 9.5002 10.7879 8.69597 10.7879C7.89174 10.7879 7.15099 10.4848 6.62189 9.97979C6.09279 9.47474 5.77533 8.76767 5.77533 8C5.77533 7.23232 6.09279 6.52525 6.62189 6.0202C7.15099 5.51515 7.89174 5.21212 8.69597 5.21212C9.5002 5.21212 10.2409 5.51515 10.77 6.0202Z" fill="#131313"/>
<path d="M8.14648 0.88843L8.14648 2.44399C8.14648 2.72681 8.40045 2.96924 8.69675 2.96924C8.99305 2.96924 9.24701 2.72681 9.24701 2.44399L9.24701 0.88843C9.24701 0.605602 8.99305 0.363178 8.69675 0.363178C8.40045 0.363178 8.14648 0.605602 8.14648 0.88843Z" fill="#131313"/>
<path d="M13.9658 7.99965C13.9658 8.28248 14.2198 8.5249 14.5161 8.5249L16.1457 8.5249C16.442 8.5249 16.696 8.28248 16.696 7.99965C16.696 7.71682 16.442 7.4744 16.1457 7.4744L14.5161 7.4744C14.2198 7.4744 13.9658 7.71682 13.9658 7.99965Z" fill="#131313"/>
<path d="M13.5854 2.6058L12.4214 3.71692C12.2098 3.89873 12.2098 4.24217 12.4214 4.44419C12.6331 4.64621 12.9717 4.64621 13.1833 4.44419L14.3473 3.33308C14.559 3.13106 14.559 2.80782 14.3473 2.6058C14.1357 2.40378 13.7971 2.40378 13.5854 2.6058Z" fill="#131313"/>
<path d="M0.696289 7.99965C0.696289 8.28248 0.950257 8.5249 1.24655 8.5249L2.87618 8.5249C3.17248 8.5249 3.42645 8.28248 3.42645 7.99965C3.42645 7.71682 3.17248 7.4744 2.87618 7.4744L1.24655 7.4744C0.950257 7.4744 0.696289 7.71682 0.696289 7.99965Z" fill="#131313"/>
<path d="M3.04545 2.58579C2.83381 2.78781 2.83381 3.11104 3.04545 3.31306L4.20947 4.42417C4.42111 4.62619 4.75974 4.62619 4.97138 4.42417C5.18302 4.24235 5.18302 3.89892 4.97138 3.6969L3.80735 2.58579C3.59571 2.38377 3.25709 2.38377 3.04545 2.58579Z" fill="#131313"/>
<path d="M8.14648 13.5554L8.14648 15.111C8.14648 15.3938 8.40045 15.6362 8.69675 15.6362C8.99304 15.6362 9.24701 15.414 9.24701 15.111L9.24701 13.5554C9.24701 13.2726 8.99304 13.0302 8.69675 13.0302C8.40045 13.0302 8.14648 13.2726 8.14648 13.5554Z" fill="#131313"/>
<path d="M12.4214 11.5755C12.2098 11.7573 12.2098 12.1008 12.4214 12.3028L13.5854 13.4139C13.7971 13.6159 14.1357 13.6159 14.3473 13.4139C14.559 13.2119 14.559 12.8887 14.3473 12.6866L13.1833 11.5755C12.9717 11.3735 12.6331 11.3735 12.4214 11.5755Z" fill="#131313"/>
<path d="M4.20947 11.5755L3.04545 12.6866C2.83381 12.8887 2.83381 13.2119 3.04545 13.4139C3.25709 13.6159 3.59571 13.6159 3.80735 13.4139L4.97138 12.3028C5.18302 12.1008 5.18302 11.7776 4.97138 11.5755C4.75974 11.3735 4.42111 11.3735 4.20947 11.5755Z" fill="#131313"/>
</g>
<defs>
<clipPath id="clip0_34:1780">
<rect width="15.2727" height="16" fill="white" transform="translate(0.696289 15.6362) rotate(-90)"/>
</clipPath>
</defs>
</svg>
