<svg width="1450" height="840" viewBox="0 0 1450 840" fill="none" xmlns="http://www.w3.org/2000/svg">
<g filter="url(#filter0_d_2702:14)">
<path d="M154.852 101.822L313.134 47.0307L327.018 100.681M340.903 154.33L41 74.4263M340.903 154.33L446.424 171.877M340.903 154.33L327.018 100.681M340.903 154.33L468.639 115.52M446.424 171.877L468.639 115.52M446.424 171.877L690.789 157.258M468.639 115.52L327.018 100.681M468.639 115.52L690.789 157.258M468.639 115.52L557.499 47.0307M327.018 100.681L557.499 47.0307M557.499 47.0307L607.483 101.822M690.789 157.258L899.055 75.6499M690.789 157.258L607.483 101.822M690.789 157.258L897.666 239.534M899.055 75.6499L607.483 101.822M899.055 75.6499L897.666 239.534M899.055 75.6499L1104.54 22M897.666 239.534L1104.54 22M897.666 239.534L1068.44 268.561M1104.54 22L1193.4 129.3M1104.54 22L1068.44 268.561M1193.4 129.3L1068.44 268.561M1193.4 129.3L1371.12 49.3957M1193.4 129.3L1225.34 224.043M1193.4 129.3L1330.16 198.71M1068.44 268.561L1289.21 348.024M1068.44 268.561L1112.87 375.861M1371.12 49.3957L1434.99 186.374M1371.12 49.3957L1330.16 198.71M1371.12 49.3957L1362.1 267.199M1434.99 186.374L1422.5 309.655M1434.99 186.374L1362.1 267.199M1289.21 348.024L1369.59 395.389M1289.21 348.024L1422.5 309.655M1289.21 348.024L1157.3 483.16M1289.21 348.024L1225.34 224.043M1289.21 348.024L1330.16 198.71M1289.21 348.024L1362.1 267.199M1289.21 348.024L1448 580.208M1369.59 395.389L1422.5 309.655M1369.59 395.389L1448 580.208M1157.3 483.16L1112.87 375.861M1157.3 483.16L1448 580.208M1157.3 483.16L942.543 630.627M1112.87 375.861L1225.34 224.043M1448 580.208L1283.64 669.306M1448 580.208L1340.25 831.468L1206.32 803.839M1448 580.208L1306.96 692.024L1206.32 803.839M942.543 630.627L1175.04 551.974M942.543 630.627L778.115 812.922M942.543 630.627L1028.04 694.515M942.543 630.627L814.093 656.253M1206.32 803.839L1283.64 669.306M1206.32 803.839L976.674 817.976M1283.64 669.306L1028.04 694.515M1283.64 669.306L1175.04 551.974M1028.04 694.515L1175.04 551.974M1028.04 694.515L976.674 817.976M1028.04 694.515L778.115 812.922M976.674 817.976L778.115 812.922M778.115 812.922C778.115 816.965 647.661 831.325 582.434 838M778.115 812.922L791.325 755.399M814.093 656.253L791.325 755.399M814.093 656.253L700.348 751.644M582.434 838L700.348 751.644M582.434 838L471.993 817.976M791.325 755.399L700.348 751.644" stroke="url(#paint0_linear_2702:14)" stroke-width="2"/>
</g>
<defs>
<filter id="filter0_d_2702:14" x="0.742554" y="0.871521" width="1448.34" height="838.138" filterUnits="userSpaceOnUse" color-interpolation-filters="sRGB">
<feFlood flood-opacity="0" result="BackgroundImageFix"/>
<feColorMatrix in="SourceAlpha" type="matrix" values="0 0 0 0 0 0 0 0 0 0 0 0 0 0 0 0 0 0 127 0" result="hardAlpha"/>
<feOffset dx="-30" dy="-10"/>
<feGaussianBlur stdDeviation="5"/>
<feColorMatrix type="matrix" values="0 0 0 0 0 0 0 0 0 0 0 0 0 0 0 0 0 0 1 0"/>
<feBlend mode="normal" in2="BackgroundImageFix" result="effect1_dropShadow_2702:14"/>
<feBlend mode="normal" in="SourceGraphic" in2="effect1_dropShadow_2702:14" result="shape"/>
</filter>
<linearGradient id="paint0_linear_2702:14" x1="1346.13" y1="378.17" x2="218.071" y2="43.9204" gradientUnits="userSpaceOnUse">
<stop stop-color="white" stop-opacity="0.07"/>
<stop offset="0.276014" stop-color="white"/>
<stop offset="1" stop-color="white" stop-opacity="0"/>
</linearGradient>
</defs>
</svg>
